<?xml version="1.0" standalone="no"?>
<!DOCTYPE svg PUBLIC "-//W3C//DTD SVG 20010904//EN"
 "http://www.w3.org/TR/2001/REC-SVG-20010904/DTD/svg10.dtd">
<svg version="1.0" xmlns="http://www.w3.org/2000/svg"
 width="96.000000pt" height="96.000000pt" viewBox="0 0 96.000000 96.000000"
 preserveAspectRatio="xMidYMid meet">
<metadata>
Created by potrace 1.14, written by Peter Selinger 2001-2017
</metadata>
<g transform="translate(0.000000,96.000000) scale(0.100000,-0.100000)"
fill="#000000" stroke="none">
<path d="M502 911 c-8 -4 -13 -11 -13 -15 3 -20 0 -26 -9 -21 -25 16 39 -65
68 -85 27 -19 30 -25 20 -38 -9 -10 -9 -13 -1 -9 6 4 18 4 27 1 14 -5 14 -9 4
-22 -10 -12 -10 -14 0 -8 7 4 12 2 12 -6 0 -10 3 -9 11 2 9 12 10 11 6 -6 -4
-17 -1 -20 14 -17 15 4 18 2 12 -12 -4 -13 -3 -16 5 -11 11 7 17 -6 13 -28 -1
-5 6 -3 15 5 12 9 15 9 10 2 -4 -8 -2 -13 4 -13 6 0 8 -4 5 -10 -3 -5 3 -10
15 -10 12 0 18 -4 15 -10 -3 -5 -1 -10 6 -10 9 0 9 -3 0 -14 -10 -12 -8 -13 8
-9 13 3 21 1 21 -6 0 -7 5 -9 12 -5 7 5 8 3 2 -7 -12 -20 -14 -38 -4 -44 5 -3
7 4 5 15 -2 11 0 18 6 15 5 -4 7 -10 4 -15 -3 -4 1 -11 7 -13 10 -4 10 -6 0
-6 -7 -1 -10 -6 -6 -13 5 -7 2 -9 -8 -5 -10 3 -15 0 -14 -11 0 -10 -6 -17 -15
-16 -10 1 -16 -6 -15 -20 1 -15 -4 -20 -18 -18 -10 2 -15 -1 -12 -6 3 -6 -5
-13 -19 -16 -14 -4 -25 -12 -25 -18 0 -9 3 -9 12 0 7 7 16 12 22 12 5 0 1 -8
-10 -19 -12 -12 -23 -15 -30 -9 -8 6 -11 3 -10 -9 0 -11 -5 -18 -16 -17 -11 1
-15 -4 -10 -15 5 -14 3 -14 -10 -3 -14 11 -16 10 -11 -7 4 -14 1 -21 -10 -21
-8 0 -17 -10 -20 -21 -4 -15 -11 -20 -21 -16 -11 4 -16 1 -16 -11 -1 -16 -1
-16 -11 0 -6 11 -16 15 -26 11 -12 -5 -14 -3 -8 7 6 10 4 12 -8 7 -15 -6 -22
3 -18 25 0 4 -9 10 -20 13 -16 5 -18 9 -8 21 10 13 8 13 -15 5 -24 -10 -30 -7
-27 12 0 4 -4 7 -10 7 -7 0 -9 9 -6 21 4 15 2 18 -7 10 -17 -14 -37 6 -28 28
5 14 4 14 -11 2 -15 -12 -17 -12 -11 4 5 13 4 16 -4 11 -11 -6 -16 5 -13 26 0
4 -9 10 -20 13 -17 6 -18 9 -7 22 12 15 11 15 -9 4 -19 -10 -23 -9 -23 4 0 8
-4 15 -10 15 -5 0 -10 7 -10 16 0 8 -4 12 -10 9 -10 -6 -12 0 -12 30 0 34 3
45 13 45 5 0 7 -4 4 -10 -3 -6 1 -7 10 -4 12 5 13 9 4 20 -10 12 -8 13 6 8 14
-6 16 -4 10 6 -6 10 -4 12 10 6 15 -5 16 -4 5 9 -7 9 -10 18 -6 22 3 3 6 2 6
-4 0 -5 7 -10 14 -10 12 0 13 5 4 21 -9 18 -9 19 3 10 11 -9 17 -9 26 1 8 9 9
16 3 20 -6 3 -10 1 -10 -6 0 -18 -11 -4 -14 18 -2 10 1 23 5 29 6 7 3 17 -8
25 -9 8 -14 9 -10 3 9 -16 -18 -25 -31 -12 -8 8 -15 8 -25 0 -8 -7 -16 -11
-18 -9 -2 1 3 -4 11 -12 13 -11 12 -12 -7 -6 -18 5 -22 3 -17 -9 4 -11 0 -14
-15 -11 -18 3 -20 1 -11 -15 8 -15 7 -17 -10 -13 -12 3 -20 0 -20 -6 0 -7 5
-9 13 -5 9 6 9 4 -1 -8 -7 -9 -22 -15 -32 -13 -13 3 -17 -1 -13 -11 4 -10 -2
-17 -16 -21 -11 -3 -21 -10 -21 -15 0 -5 6 -6 13 -2 9 5 9 3 -1 -7 -11 -12
-14 -12 -23 1 -7 11 -8 7 -5 -14 3 -16 10 -34 15 -39 5 -5 7 -16 4 -25 -5 -11
-3 -13 8 -7 11 7 11 5 -1 -10 -14 -17 -13 -17 8 -11 12 4 22 4 21 -1 -3 -20 2
-34 11 -28 9 6 15 -8 11 -29 -1 -5 4 -4 12 2 19 16 30 3 14 -16 -10 -13 -8
-14 11 -7 21 6 23 5 13 -13 -9 -17 -7 -19 15 -16 14 1 24 0 21 -2 -8 -8 37
-51 47 -46 5 3 7 -7 4 -22 -4 -21 -3 -24 8 -15 14 11 20 1 15 -25 -1 -5 4 -4
12 2 19 16 30 3 14 -16 -10 -13 -8 -14 11 -7 21 6 23 5 13 -12 -8 -17 -7 -19
12 -18 14 1 30 -9 45 -29 12 -16 22 -26 22 -21 0 5 7 -1 16 -13 8 -12 13 -26
10 -31 -4 -5 4 -7 16 -3 21 5 22 4 9 -11 -12 -15 -12 -17 3 -11 9 4 16 1 16
-6 0 -9 4 -9 17 1 9 8 14 10 11 4 -3 -5 1 -17 10 -25 14 -13 15 -12 9 3 -3 9
-2 19 3 22 6 4 10 1 10 -4 0 -6 5 -11 11 -11 5 0 7 5 3 12 -5 8 -2 9 11 4 14
-5 16 -4 7 7 -15 17 4 38 26 30 11 -5 13 -3 7 7 -6 10 -4 12 10 6 15 -5 16 -4
5 9 -7 9 -10 18 -6 22 3 3 6 0 6 -7 0 -7 12 -1 27 14 20 20 28 24 35 14 4 -7
8 -8 8 -2 0 5 -5 15 -11 21 -7 7 -4 10 13 9 17 -1 22 4 20 18 -2 11 1 15 7 11
6 -3 11 -1 11 4 0 6 7 11 16 11 8 0 12 5 9 10 -4 6 -11 7 -17 4 -7 -4 -8 -2
-4 5 4 6 12 9 17 6 8 -6 13 8 10 28 -2 11 6 8 24 -9 14 -15 15 -14 11 12 -4
21 -2 24 6 16 7 -7 17 -12 23 -12 5 0 4 4 -3 8 -9 6 -7 13 7 29 11 11 17 24
13 27 -3 4 1 4 11 0 13 -5 16 -2 11 10 -4 11 -1 16 11 16 10 0 13 -5 9 -12 -4
-7 -3 -8 5 -4 9 6 9 11 -1 24 -11 13 -10 15 4 9 11 -4 17 -2 15 5 -1 6 4 13
12 16 8 3 11 0 7 -7 -5 -7 -1 -9 8 -5 14 5 14 8 1 21 -13 13 -13 33 1 33 3 0
3 -4 -1 -9 -3 -5 -1 -12 4 -15 5 -3 7 7 5 22 -6 48 -10 62 -24 75 -10 9 -11 9
-6 0 4 -7 2 -13 -3 -13 -11 0 -15 15 -12 34 1 5 -4 4 -12 -2 -19 -16 -30 -3
-14 16 10 13 8 14 -11 7 -21 -6 -23 -5 -13 13 9 17 7 19 -15 16 -14 -1 -23 0
-20 3 3 3 -2 12 -12 20 -9 8 -11 11 -3 7 10 -5 12 -3 7 5 -5 7 -15 10 -23 7
-11 -5 -13 -1 -7 16 6 19 5 21 -8 11 -19 -16 -32 -5 -16 14 6 8 7 13 2 12 -23
-4 -36 2 -31 15 4 10 0 12 -15 8 -14 -3 -19 -1 -14 6 4 7 2 12 -5 12 -7 0 -9
8 -6 21 4 16 3 18 -9 8 -14 -11 -20 -1 -15 25 1 5 -4 4 -12 -2 -19 -16 -30 -3
-14 16 10 13 8 14 -11 7 -21 -6 -23 -5 -13 13 9 17 7 19 -14 17 -15 -2 -22 1
-19 9 6 14 -64 21 -84 7z m213 -661 c3 -6 -1 -7 -9 -4 -18 7 -21 14 -7 14 6 0
13 -4 16 -10z"/>
<path d="M536 754 c-6 -15 -4 -15 11 -3 10 7 20 15 22 16 2 2 -3 3 -11 3 -9 0
-19 -7 -22 -16z"/>
<path d="M303 725 c0 -7 6 -11 14 -8 7 3 13 6 13 8 0 2 -6 5 -13 8 -8 3 -14
-1 -14 -8z"/>
<path d="M485 702 c4 -4 12 -7 18 -7 5 0 12 -7 14 -15 3 -9 1 -11 -4 -5 -4 6
-21 12 -37 13 -24 3 -28 1 -22 -13 5 -13 2 -16 -10 -11 -12 5 -14 1 -9 -17 6
-19 5 -20 -6 -7 -8 8 -13 13 -12 11 4 -7 -19 -43 -24 -37 -3 3 -16 -6 -29 -21
-17 -19 -22 -34 -17 -52 4 -17 2 -22 -6 -17 -6 4 -11 2 -11 -3 0 -6 10 -11 23
-12 12 0 16 -3 10 -6 -7 -2 -13 -10 -13 -16 0 -5 3 -8 6 -4 8 8 44 -26 58 -55
6 -13 19 -23 28 -23 9 0 29 -10 44 -22 27 -22 51 -22 38 -1 -5 7 2 9 22 4 19
-4 24 -3 15 3 -16 10 -5 35 11 25 8 -5 9 -1 4 11 -5 15 -4 16 9 5 13 -11 14
-10 9 4 -4 11 -1 16 10 16 9 0 21 10 26 23 6 14 9 17 11 7 1 -8 5 1 8 20 8 46
2 82 -13 73 -6 -4 -5 0 2 9 10 13 10 18 1 24 -8 4 -9 3 -5 -4 4 -7 2 -12 -3
-12 -6 0 -11 5 -11 12 0 6 -3 8 -7 5 -11 -11 -32 14 -26 30 5 12 2 15 -10 10
-12 -4 -14 -2 -10 10 4 11 2 14 -5 9 -7 -4 -12 -1 -12 8 0 8 -10 18 -22 22
-33 11 -51 13 -43 6z m-105 -116 c0 -2 -8 -10 -17 -17 -16 -13 -17 -12 -4 4
13 16 21 21 21 13z m62 -160 c7 4 8 2 4 -5 -9 -13 -26 -5 -25 12 0 9 2 8 6 -1
2 -6 10 -9 15 -6z"/>
<path d="M595 620 c3 -5 8 -10 11 -10 2 0 4 5 4 10 0 6 -5 10 -11 10 -5 0 -7
-4 -4 -10z"/>
<path d="M216 567 c3 -10 9 -15 12 -12 3 3 0 11 -7 18 -10 9 -11 8 -5 -6z"/>
<path d="M46 545 c4 -8 11 -15 16 -15 6 0 5 6 -2 15 -7 8 -14 15 -16 15 -2 0
-1 -7 2 -15z"/>
<path d="M663 527 c-1 -11 -1 -18 0 -16 2 2 8 11 15 20 9 12 9 16 -1 16 -7 0
-14 -9 -14 -20z"/>
<path d="M336 453 c-6 -14 -5 -15 5 -6 7 7 10 15 7 18 -3 3 -9 -2 -12 -12z"/>
<path d="M383 445 c0 -8 4 -12 9 -9 5 3 6 10 3 15 -9 13 -12 11 -12 -6z"/>
<path d="M355 401 c-3 -5 -2 -12 3 -15 5 -3 9 1 9 9 0 17 -3 19 -12 6z"/>
<path d="M440 390 c-8 -5 -18 -6 -24 -3 -5 3 -6 1 -2 -5 5 -9 13 -9 26 -2 13
7 20 6 23 -3 2 -6 7 -9 11 -6 12 11 -19 28 -34 19z"/>
<path d="M409 343 c-13 -16 -12 -17 4 -4 9 7 17 15 17 17 0 8 -8 3 -21 -13z"/>
<path d="M370 206 c0 -2 8 -10 18 -17 15 -13 16 -12 3 4 -13 16 -21 21 -21 13z"/>
<path d="M585 130 c-3 -5 -1 -10 4 -10 6 0 11 5 11 10 0 6 -2 10 -4 10 -3 0
-8 -4 -11 -10z"/>
</g>
</svg>
